<?xml version="1.0" standalone="no"?>
<svg xmlns="http://www.w3.org/2000/svg" width="24" height="24"><rect width="24" height="24" opacity="0"></rect><g><path d="M10.85 18.43Q11.16 18.77 11.58 18.89Q12 19.01 12.42 18.89Q12.84 18.77 13.13 18.43L20.18 10.25Q20.47 9.94 20.44 9.54Q20.4 9.14 20.12 8.87Q19.85 8.59 19.44 8.59L15.94 8.59L15.94 3.29Q15.94 2.88 15.64 2.58Q15.34 2.28 14.93 2.28L9.1 2.28Q8.66 2.28 8.38 2.58Q8.09 2.88 8.09 3.29L8.09 8.59L4.56 8.59Q4.15 8.59 3.88 8.87Q3.6 9.14 3.56 9.54Q3.53 9.94 3.82 10.25L10.85 18.43ZM5.88 20.23Q5.57 20.23 5.35 20.45Q5.14 20.66 5.14 20.98Q5.14 21.29 5.35 21.5Q5.57 21.72 5.88 21.72L18.34 21.72Q18.65 21.72 18.86 21.5Q19.08 21.29 19.08 20.98Q19.08 20.66 18.86 20.45Q18.65 20.23 18.34 20.23L5.88 20.23Z" fill="rgba(10,89,247,1)"></path></g></svg>