<?xml version="1.0" standalone="no"?>
<svg xmlns="http://www.w3.org/2000/svg" width="24" height="24"><rect width="24" height="24" opacity="0"></rect><g><path d="M19.51 6.46Q20.3 6.46 21 6.86Q21.7 7.27 22.1 7.96Q22.51 8.64 22.51 9.46L22.51 12.43L14.98 12.43Q14.81 12.14 14.51 11.95Q14.21 11.76 13.85 11.76L10.18 11.76Q9.82 11.76 9.5 11.95Q9.19 12.14 9.02 12.43L1.51 12.43L1.51 9.46Q1.51 8.21 2.39 7.33Q3.26 6.46 4.51 6.46L6 6.46L6 5.5Q6 4.68 6.41 4Q6.82 3.31 7.5 2.9Q8.18 2.5 9 2.5L15.02 2.5Q15.84 2.5 16.52 2.9Q17.21 3.31 17.62 4Q18.02 4.68 18.02 5.5L18.02 6.46L19.51 6.46ZM16.51 6.46L16.51 5.5Q16.51 4.87 16.08 4.43Q15.65 3.98 15.02 3.98L9 3.98Q8.38 3.98 7.94 4.43Q7.51 4.87 7.51 5.5L7.51 6.46ZM13.85 14.47Q14.18 14.47 14.48 14.29Q14.78 14.11 14.98 13.8L22.51 13.8L22.51 18.5Q22.51 19.32 22.1 20Q21.7 20.69 21 21.1Q20.3 21.5 19.51 21.5L4.51 21.5Q3.7 21.5 3.01 21.1Q2.33 20.69 1.92 20Q1.51 19.32 1.51 18.5L1.51 13.8L9.02 13.8Q9.22 14.11 9.52 14.29Q9.82 14.47 10.18 14.47L13.85 14.47Z" fill="rgba(0,0,0,0.4)"></path></g></svg>