<?xml version="1.0" standalone="no"?>
<svg xmlns="http://www.w3.org/2000/svg" width="16" height="16"><rect width="16" height="16" opacity="0"></rect><g><path d="M11.26 8.22Q11.62 8.22 11.95 8.09Q12.29 7.95 12.56 7.68L14.19 6.03Q14.54 5.68 14.67 5.21Q14.8 4.74 14.67 4.26Q14.54 3.79 14.19 3.44L12.56 1.79Q12.21 1.44 11.74 1.32Q11.26 1.2 10.79 1.32Q10.32 1.44 9.97 1.79L8.32 3.46Q7.97 3.81 7.84 4.28Q7.71 4.75 7.84 5.22Q7.97 5.7 8.32 6.05L9.97 7.7Q10.22 7.95 10.56 8.09Q10.9 8.22 11.26 8.22ZM11.26 2.26Q11.42 2.26 11.58 2.33Q11.74 2.4 11.86 2.51L13.5 4.16Q13.74 4.4 13.74 4.74Q13.74 5.09 13.5 5.33L11.86 6.98Q11.6 7.23 11.26 7.23Q10.93 7.23 10.67 6.98L9.02 5.33Q8.78 5.09 8.78 4.74Q8.78 4.4 9.02 4.16L10.67 2.51Q10.91 2.26 11.26 2.26ZM12.43 14.74Q12.93 14.74 13.34 14.49Q13.76 14.24 14.01 13.82Q14.26 13.41 14.26 12.91L14.26 10.58Q14.26 10.08 14.01 9.66Q13.76 9.23 13.34 8.98Q12.93 8.74 12.43 8.74L10.1 8.74Q9.6 8.74 9.18 8.98Q8.75 9.23 8.5 9.66Q8.26 10.08 8.26 10.58L8.26 12.91Q8.26 13.41 8.5 13.82Q8.75 14.24 9.18 14.49Q9.6 14.74 10.1 14.74L12.43 14.74ZM12.43 9.74Q12.77 9.74 13.02 9.98Q13.26 10.22 13.26 10.58L13.26 12.91Q13.26 13.25 13.02 13.5Q12.77 13.74 12.43 13.74L10.1 13.74Q9.74 13.74 9.5 13.5Q9.26 13.25 9.26 12.91L9.26 10.58Q9.26 10.22 9.5 9.98Q9.74 9.74 10.1 9.74L12.43 9.74ZM5.42 14.74Q5.92 14.74 6.34 14.49Q6.77 14.24 7.02 13.82Q7.26 13.41 7.26 12.91L7.26 10.58Q7.26 10.08 7.02 9.66Q6.77 9.23 6.34 8.98Q5.92 8.74 5.42 8.74L3.09 8.74Q2.59 8.74 2.18 8.98Q1.76 9.23 1.51 9.66Q1.26 10.08 1.26 10.58L1.26 12.91Q1.26 13.41 1.51 13.82Q1.76 14.24 2.18 14.49Q2.59 14.74 3.09 14.74L5.42 14.74ZM5.42 9.74Q5.76 9.74 6.01 9.98Q6.26 10.22 6.26 10.58L6.26 12.91Q6.26 13.25 6.01 13.5Q5.76 13.74 5.42 13.74L3.09 13.74Q2.75 13.74 2.5 13.5Q2.26 13.25 2.26 12.91L2.26 10.58Q2.26 10.22 2.5 9.98Q2.75 9.74 3.09 9.74L5.42 9.74ZM5.42 7.74Q5.92 7.74 6.34 7.5Q6.77 7.25 7.02 6.82Q7.26 6.4 7.26 5.9L7.26 3.57Q7.26 3.07 7.02 2.66Q6.77 2.24 6.34 1.99Q5.92 1.74 5.42 1.74L3.09 1.74Q2.59 1.74 2.18 1.99Q1.76 2.24 1.51 2.66Q1.26 3.07 1.26 3.57L1.26 5.9Q1.26 6.4 1.51 6.82Q1.76 7.25 2.18 7.5Q2.59 7.74 3.09 7.74L5.42 7.74ZM5.42 2.74Q5.76 2.74 6.01 2.98Q6.26 3.23 6.26 3.57L6.26 5.9Q6.26 6.26 6.01 6.5Q5.76 6.74 5.42 6.74L3.09 6.74Q2.75 6.74 2.5 6.5Q2.26 6.26 2.26 5.9L2.26 3.57Q2.26 3.23 2.5 2.98Q2.75 2.74 3.09 2.74L5.42 2.74Z" fill="rgba(0,0,0,0.9019607843137255)"></path></g></svg>