<?xml version="1.0" standalone="no"?>
<svg xmlns="http://www.w3.org/2000/svg" width="24" height="24"><rect width="24" height="24" opacity="0"></rect><g><path d="M19.01 3.5Q19.63 3.5 20.06 3.94Q20.5 4.37 20.5 4.99L20.5 19.01Q20.5 19.61 20.06 20.05Q19.63 20.5 19.01 20.5L4.99 20.5Q4.39 20.5 3.95 20.05Q3.5 19.61 3.5 19.01L3.5 4.99Q3.5 4.37 3.95 3.94Q4.39 3.5 4.99 3.5L19.01 3.5ZM4.99 1.99Q4.18 1.99 3.49 2.4Q2.81 2.81 2.4 3.49Q1.99 4.18 1.99 4.99L1.99 19.01Q1.99 19.82 2.4 20.51Q2.81 21.19 3.49 21.6Q4.18 22.01 4.99 22.01L19.01 22.01Q19.82 22.01 20.51 21.6Q21.19 21.19 21.6 20.51Q22.01 19.82 22.01 19.01L22.01 4.99Q22.01 4.18 21.6 3.49Q21.19 2.81 20.51 2.4Q19.82 1.99 19.01 1.99L4.99 1.99Z" fill="rgba(0,0,0,0.9019607843137255)"></path><path d="M12.74 11.26L12.74 7.25Q12.74 6.94 12.53 6.72Q12.31 6.5 12 6.5Q11.69 6.5 11.47 6.72Q11.26 6.94 11.26 7.25L11.26 11.26L7.25 11.26Q6.94 11.26 6.72 11.47Q6.5 11.69 6.5 12Q6.5 12.31 6.72 12.53Q6.94 12.74 7.25 12.74L11.26 12.74L11.26 16.75Q11.26 17.06 11.47 17.28Q11.69 17.5 12 17.5Q12.31 17.5 12.53 17.28Q12.74 17.06 12.74 16.75L12.74 12.74L16.75 12.74Q17.06 12.74 17.28 12.53Q17.5 12.31 17.5 12Q17.5 11.69 17.28 11.47Q17.06 11.26 16.75 11.26Z" fill="rgba(0,0,0,0.9019607843137255)"></path></g></svg>