<?xml version="1.0" standalone="no"?>
<svg xmlns="http://www.w3.org/2000/svg" width="24" height="24"><rect width="24" height="24" opacity="0"></rect><g><path d="M5.21 2.18Q4.87 2.18 4.63 2.42Q4.39 2.66 4.39 3L4.39 16.92L1.94 16.92Q1.58 16.92 1.36 17.16Q1.13 17.4 1.12 17.72Q1.1 18.05 1.37 18.31L4.63 21.58Q4.9 21.82 5.22 21.8Q5.54 21.79 5.78 21.58Q6.02 21.36 6.02 21L6.02 3Q6.02 2.66 5.78 2.42Q5.54 2.18 5.21 2.18Z" fill="rgba(0,0,0,0.9019607843137255)"></path><path d="M16.68 20.11Q16.99 20.11 17.21 19.9Q17.42 19.68 17.42 19.37Q17.42 19.06 17.21 18.84Q16.99 18.62 16.68 18.62L9.6 18.62Q9.29 18.62 9.06 18.84Q8.83 19.06 8.83 19.37Q8.83 19.68 9.06 19.9Q9.29 20.11 9.6 20.11L16.68 20.11ZM19.37 12.74Q19.68 12.74 19.9 12.53Q20.11 12.31 20.11 12Q20.11 11.69 19.9 11.47Q19.68 11.26 19.37 11.26L9.58 11.26Q9.26 11.26 9.05 11.47Q8.83 11.69 8.83 12Q8.83 12.31 9.05 12.53Q9.26 12.74 9.58 12.74L19.37 12.74ZM22.13 5.4Q22.44 5.4 22.66 5.17Q22.87 4.94 22.87 4.63Q22.87 4.32 22.66 4.1Q22.44 3.89 22.13 3.89L9.58 3.89Q9.26 3.89 9.05 4.1Q8.83 4.32 8.83 4.63Q8.83 4.94 9.05 5.17Q9.26 5.4 9.58 5.4L22.13 5.4Z" fill="rgba(0,0,0,0.9019607843137255)"></path></g></svg>