<?xml version="1.0" standalone="no"?>
<svg xmlns="http://www.w3.org/2000/svg" width="24" height="24"><rect width="24" height="24" opacity="0"></rect><g><path d="M9.1 6.05Q9.41 6.05 9.62 5.83Q9.84 5.62 9.84 5.3Q9.84 4.39 10.5 3.72Q11.16 3.05 12.1 3.05Q13.03 3.05 13.69 3.72Q14.35 4.39 14.35 5.3Q14.35 5.62 14.57 5.83Q14.78 6.05 15.1 6.05L20.54 6.05Q20.86 6.05 21.07 5.83Q21.29 5.62 21.29 5.3Q21.29 4.99 21.07 4.78Q20.86 4.56 20.54 4.56L15.77 4.56Q15.5 3.26 14.47 2.41Q13.44 1.56 12.07 1.56Q10.73 1.56 9.7 2.41Q8.66 3.26 8.4 4.56L3.43 4.56Q3.12 4.56 2.9 4.78Q2.69 4.99 2.69 5.3Q2.69 5.62 2.9 5.83Q3.12 6.05 3.43 6.05L9.1 6.05ZM13.75 17.88Q14.06 17.88 14.28 17.68Q14.5 17.47 14.52 17.16L14.76 10.15Q14.78 9.84 14.56 9.61Q14.33 9.38 14.02 9.36Q13.7 9.36 13.49 9.56Q13.27 9.77 13.27 10.08L13.01 17.09Q12.98 17.4 13.21 17.63Q13.44 17.86 13.75 17.88ZM10.27 17.88Q10.58 17.86 10.81 17.63Q11.04 17.4 11.02 17.09L10.73 10.08Q10.73 9.77 10.51 9.56Q10.3 9.36 9.96 9.36Q9.65 9.38 9.43 9.61Q9.22 9.84 9.24 10.15L9.5 17.16Q9.53 17.45 9.74 17.66Q9.96 17.88 10.27 17.88ZM17.21 19.8Q17.16 20.28 16.8 20.6Q16.44 20.93 15.96 20.93L8.04 20.93Q7.54 20.93 7.19 20.6Q6.84 20.28 6.79 19.8L5.81 7.22L4.32 7.22L5.3 19.92Q5.4 21 6.18 21.72Q6.96 22.44 8.04 22.44L15.96 22.44Q17.04 22.44 17.81 21.72Q18.58 21 18.7 19.92L19.66 7.22L18.17 7.22L17.21 19.8Z" fill="rgba(0,0,0,0.9019607843137255)"></path></g></svg>