<?xml version="1.0" standalone="no"?>
<svg xmlns="http://www.w3.org/2000/svg" width="16" height="16"><rect width="16" height="16" opacity="0"></rect><g><path d="M13.18 3.52Q13.33 3.36 13.33 3.16Q13.33 2.96 13.18 2.82Q13.04 2.66 12.83 2.66Q12.62 2.66 12.48 2.82L8 7.3L3.52 2.82Q3.38 2.66 3.17 2.66Q2.96 2.66 2.8 2.82Q2.67 2.96 2.67 3.16Q2.67 3.36 2.8 3.52L7.3 8L2.8 12.46Q2.67 12.62 2.67 12.83Q2.67 13.04 2.8 13.18Q2.96 13.31 3.17 13.32Q3.38 13.33 3.52 13.18L8 8.7L12.48 13.18Q12.62 13.33 12.83 13.33Q13.04 13.33 13.18 13.18Q13.33 13.04 13.33 12.83Q13.33 12.62 13.18 12.46L8.7 8L13.18 3.52Z" fill="rgba(0,0,0,0.9019607843137255)"></path></g></svg>