<?xml version="1.0" standalone="no"?>
<svg xmlns="http://www.w3.org/2000/svg" width="24" height="24"><rect width="24" height="24" opacity="0"></rect><g mask="url(#hms_mask_0)"><path d="M1.51 12Q1.51 14.86 2.92 17.26Q4.32 19.66 6.73 21.07Q9.14 22.49 12 22.49Q14.86 22.49 17.27 21.07Q19.68 19.66 21.1 17.24Q22.51 14.83 22.51 12Q22.51 9.14 21.1 6.73Q19.68 4.32 17.27 2.9Q14.86 1.49 12 1.49Q9.14 1.49 6.73 2.9Q4.32 4.32 2.92 6.73Q1.51 9.14 1.51 12Z" fill="rgba(0,0,0,0.4)"></path></g><defs><mask id="hms_mask_0"><rect width="24" height="24" fill="#ffffff"></rect><g><path d="M5.52 17.9Q5.9 16.73 6.83 15.82Q7.75 14.9 8.96 14.4Q10.18 13.9 11.4 13.9L12.6 13.9Q13.82 13.9 15.04 14.4Q16.25 14.9 17.16 15.82Q18.07 16.73 18.46 17.9Q17.18 19.3 15.53 20.03Q13.87 20.76 12 20.76Q10.08 20.76 8.42 20.02Q6.77 19.27 5.52 17.9ZM9.65 6.48Q10.63 5.5 11.99 5.51Q13.34 5.52 14.33 6.5Q15.31 7.49 15.32 8.84Q15.34 10.2 14.35 11.18Q13.37 12.17 12.01 12.16Q10.66 12.14 9.67 11.16Q8.69 10.18 8.68 8.82Q8.66 7.46 9.65 6.48Z" fill="#000000"></path></g></mask></defs></svg>