<?xml version="1.0" standalone="no"?>
<svg xmlns="http://www.w3.org/2000/svg" width="16" height="16"><rect width="16" height="16" opacity="0"></rect><g><path d="M3.33 1.33Q2.78 1.33 2.33 1.6Q1.87 1.87 1.6 2.33Q1.33 2.78 1.33 3.33L1.33 12.67Q1.33 13.22 1.6 13.67Q1.87 14.13 2.33 14.4Q2.78 14.67 3.33 14.67L12.67 14.67Q13.22 14.67 13.67 14.4Q14.13 14.13 14.4 13.67Q14.67 13.22 14.67 12.67L14.67 3.33Q14.67 2.78 14.4 2.33Q14.13 1.87 13.67 1.6Q13.22 1.33 12.67 1.33L3.33 1.33ZM10.9 5.31Q10.9 5.47 10.78 5.58Q10.67 5.68 10.53 5.68L5.47 5.68Q5.33 5.68 5.22 5.58Q5.1 5.47 5.1 5.31L5.1 2.35L10.9 2.35L10.9 5.31ZM13.66 12.67Q13.66 13.07 13.38 13.37Q13.09 13.66 12.67 13.66L3.33 13.66Q2.93 13.66 2.63 13.37Q2.34 13.07 2.34 12.67L2.34 3.33Q2.34 2.91 2.63 2.62Q2.93 2.34 3.33 2.34L4.11 2.34L4.11 5.31Q4.11 5.87 4.51 6.28Q4.91 6.69 5.47 6.69L10.53 6.69Q11.09 6.69 11.49 6.28Q11.89 5.87 11.89 5.31L11.89 2.34L12.67 2.34Q13.09 2.34 13.38 2.62Q13.66 2.91 13.66 3.33L13.66 12.67ZM4.67 10Q4.46 10 4.31 10.14Q4.16 10.29 4.16 10.5Q4.16 10.7 4.31 10.85Q4.46 10.99 4.67 10.99L11.33 10.99Q11.54 10.99 11.69 10.85Q11.84 10.7 11.84 10.5Q11.84 10.29 11.69 10.14Q11.54 10 11.33 10L4.67 10Z" fill="rgba(0,0,0,0.9019607843137255)"></path></g></svg>